<svg xmlns="http://www.w3.org/2000/svg" viewBox="0 0 753.46 223.54"><defs><style>.cls-1,.cls-10,.cls-6,.cls-7{fill:#6bc17a;}.cls-2{fill:#8870b2;}.cls-3{fill:#375241;}.cls-4{fill:#fff;}.cls-5{fill:#383838;}.cls-10,.cls-6,.cls-7{font-size:102.47px;font-family:LemonMilk, "Lemon/Milk";}.cls-6{letter-spacing:-0.01em;}.cls-7{letter-spacing:-0.01em;}.cls-8{letter-spacing:-0.06em;}.cls-10,.cls-9{letter-spacing:-0.01em;}</style></defs><title>Asset 3</title><g id="Layer_2" data-name="Layer 2"><g id="Layer_1-2" data-name="Layer 1"><rect class="cls-1" width="232.96" height="223.54"/><circle class="cls-2" cx="115.59" cy="113.48" r="95.92"/><path class="cls-3" d="M147,207a1.71,1.71,0,0,1-1.64-1.23C142,194.65,135.22,188,129.2,182.13c-7.13-6.95-13.28-12.94-11-23.67a1.72,1.72,0,0,1,3.36.71c-1.89,8.88,3.12,13.76,10,20.51,6.32,6.15,13.48,13.14,17,25.11a1.72,1.72,0,0,1-1.16,2.13A1.66,1.66,0,0,1,147,207Z"/><path class="cls-3" d="M157.57,204.58a1.71,1.71,0,0,1-1.69-1.49,17.87,17.87,0,0,1,0-2.83c.26-5.14.74-14.71-6.48-20.18a20.9,20.9,0,0,0-5.45-2.72c-3.21-1.22-6.85-2.6-9.82-7-3.45-5.22-7.37-15.69,5.06-27.38a1.72,1.72,0,0,1,2.35,2.5c-10.07,9.46-8,17.72-4.56,23,2.35,3.49,5.06,4.52,8.19,5.71a23.68,23.68,0,0,1,6.3,3.19c8.66,6.56,8.1,17.72,7.83,23.08a19.71,19.71,0,0,0,0,2.21,1.72,1.72,0,0,1-1.47,1.92Z"/><path class="cls-3" d="M157.58,207a1.39,1.39,0,0,1-.35,0,1.72,1.72,0,0,1-1.34-2c.06-.32,1.73-8.22,19.47-30.47,16.92-21.23,8.61-51.5,8.52-51.8a1.72,1.72,0,0,1,3.3-.94c.37,1.31,8.87,32.28-9.14,54.88-17,21.27-18.77,28.92-18.78,29A1.74,1.74,0,0,1,157.58,207Z"/><path class="cls-3" d="M168.45,188.13a1.76,1.76,0,0,1-.93-.27,1.71,1.71,0,0,1-.51-2.37c7.72-12,7.07-28-1.43-35.83a1.71,1.71,0,1,1,2.31-2.53c9.85,9,10.73,26.68,2,40.22A1.73,1.73,0,0,1,168.45,188.13Z"/><path class="cls-3" d="M84.74,207a1.69,1.69,0,0,1-.58-.1,1.73,1.73,0,0,1-1-2.2c2.16-5.94,6.69-10.52,11.48-15.36,7.82-7.89,15.89-16.06,15.89-31.61a1.72,1.72,0,1,1,3.43,0c0,17-9,26-16.88,34-4.52,4.57-8.79,8.88-10.7,14.12A1.71,1.71,0,0,1,84.74,207Z"/><path class="cls-3" d="M73.78,205.3h-.23a1.71,1.71,0,0,1-1.47-1.93A31.06,31.06,0,0,1,84.31,182.3l2.43-1.81A50.48,50.48,0,0,0,94.45,174a1.73,1.73,0,0,1,2.43-.09,1.71,1.71,0,0,1,.08,2.42,53.35,53.35,0,0,1-8.19,6.92c-.79.58-1.58,1.16-2.39,1.77a27.75,27.75,0,0,0-10.91,18.79A1.7,1.7,0,0,1,73.78,205.3Z"/><path class="cls-3" d="M74.14,207a1.7,1.7,0,0,1-1.68-1.39c0-.06-1.83-7.71-18.78-29-18-22.6-9.52-53.57-9.14-54.88a1.71,1.71,0,1,1,3.29.94c-.08.3-8.37,30.6,8.53,51.8,17.73,22.25,19.4,30.15,19.46,30.47a1.72,1.72,0,0,1-1.36,2Z"/><path class="cls-3" d="M63.27,188.13a1.72,1.72,0,0,1-1.44-.78c-8.73-13.54-7.86-31.2,2-40.22a1.72,1.72,0,0,1,2.32,2.53c-8.51,7.79-9.15,23.86-1.43,35.83a1.72,1.72,0,0,1-.51,2.37A1.76,1.76,0,0,1,63.27,188.13Z"/><path class="cls-4" d="M29.87,111.43A25.47,25.47,0,0,0,40.54,133c1.71,1.19,6.82,4.39,12.3,4.39a13.17,13.17,0,0,0,2.32-.21,22.24,22.24,0,0,0,3.43,14.46c4.74,7.76,11.28,13.25,17.94,15.05a35.78,35.78,0,0,0,9.28,1.27,24.55,24.55,0,0,0,14.16-4c3.32-2.34,6.23-8.2,6-12.13h0V139.34a1.43,1.43,0,0,0,0-.65V80h0V28.75a.25.25,0,0,0,0-.08,14.25,14.25,0,0,0-7.4-12c-4.92-2.83-10.46-2.8-14.25-2.28A24.93,24.93,0,0,0,69.05,22,17.7,17.7,0,0,0,64.7,37,25.76,25.76,0,0,0,43.28,43.7,23.4,23.4,0,0,0,35.88,66a16,16,0,0,0,7.21,10.47A16.16,16.16,0,0,0,40.57,83,17.13,17.13,0,0,0,41,90.58,25.4,25.4,0,0,0,29.87,111.43Z"/><path class="cls-4" d="M189.05,102.64a16.94,16.94,0,0,0,.48-7.56A16.16,16.16,0,0,0,187,88.53a16,16,0,0,0,7.21-10.47,23.44,23.44,0,0,0-7.4-22.3,25.81,25.81,0,0,0-21.42-6.68,17.71,17.71,0,0,0-4.35-15,25,25,0,0,0-15.29-7.62c-3.78-.53-9.32-.56-14.24,2.28a14.25,14.25,0,0,0-7.41,12V92.1h0v58.65a1.3,1.3,0,0,0,0,.65v12.44c-.21,3.92,2.69,9.79,6,12.13a24.53,24.53,0,0,0,14.15,4,35.37,35.37,0,0,0,9.29-1.27c6.65-1.79,13.19-7.28,17.94-15a22.31,22.31,0,0,0,3.43-14.46,13.08,13.08,0,0,0,2.32.21c5.48,0,10.59-3.2,12.3-4.4a26,26,0,0,0-.51-42.38Z"/><path class="cls-3" d="M113.83,147.9a1.46,1.46,0,0,0,0-.69V88.57h0V37.3a.28.28,0,0,0,0-.09,14.38,14.38,0,0,0-7.47-12.1C101.4,22.26,95.82,22.29,92,22.82a25,25,0,0,0-15.36,7.66,17.87,17.87,0,0,0-4.43,14.91,25.9,25.9,0,0,0-21.33,6.74,23.56,23.56,0,0,0-7.45,22.44,16.19,16.19,0,0,0,7.15,10.49,16.5,16.5,0,0,0-2.46,6.47,17.1,17.1,0,0,0,.45,7.53,26.17,26.17,0,0,0-.43,42.56C49.87,142.81,55,146,60.54,146a13.19,13.19,0,0,0,2.16-.17,22.46,22.46,0,0,0,3.47,14.36c4.76,7.79,11.33,13.3,18,15.11a36,36,0,0,0,9.32,1.27,24.72,24.72,0,0,0,14.24-4c3.36-2.36,6.28-8.28,6.08-12.25h0ZM105.93,170c-5.11,3.6-12.93,4.46-20.92,2.3-5.92-1.6-11.81-6.6-16.16-13.72a19.27,19.27,0,0,1-3-12.49,12.49,12.49,0,0,1,7-9.79l0,0a13.84,13.84,0,0,0,3,1.74,14.21,14.21,0,0,0,5.55,1.11,14.59,14.59,0,0,0,8.13-2.44,1.57,1.57,0,0,0-1.76-2.61,11.2,11.2,0,0,1-13.86-17.53,1.57,1.57,0,1,0-2.13-2.32,14.67,14.67,0,0,0-4.46,13A14.44,14.44,0,0,0,70.44,134a15.55,15.55,0,0,0-6.93,8.47c-4.35,1.43-9.82-.78-13.56-3.39a23,23,0,0,1-.12-37A12.79,12.79,0,0,0,57,108a11.25,11.25,0,0,0,3.38.53A10.44,10.44,0,0,0,67,106.19a1.57,1.57,0,0,0-2-2.42A7.65,7.65,0,0,1,57.9,105a9.82,9.82,0,0,1-5.63-5.07,13.36,13.36,0,0,1-1-7.89,12,12,0,0,1,4.14-7.62,7.72,7.72,0,0,1,7.82-1.18,1.57,1.57,0,1,0,1.34-2.84,10.91,10.91,0,0,0-11.1,1.54c-.27.21-.52.44-.77.67a12.93,12.93,0,0,1-6.16-8.7C45,66.77,47.34,59.68,53,54.45A22.67,22.67,0,0,1,72.6,48.66a10,10,0,0,0,0,9.93,1.56,1.56,0,0,0,1.36.77,1.61,1.61,0,0,0,.79-.21A1.58,1.58,0,0,0,75.28,57a6.65,6.65,0,0,1,9.33-9,1.57,1.57,0,1,0,1.7-2.64,10,10,0,0,0-10.83.16,14.49,14.49,0,0,1,3.51-13,21.91,21.91,0,0,1,13.46-6.65c3.32-.46,8.15-.5,12.33,1.91,3.7,2.13,6.07,6.07,5.9,9.79a.47.47,0,0,0,0,.17V59.16a16.59,16.59,0,0,1-9.77-.77A11.86,11.86,0,0,1,94.13,51a9,9,0,0,1,2.64-9.11,1.57,1.57,0,1,0-2-2.42,12.07,12.07,0,0,0-3.67,12.36,14.87,14.87,0,0,0,8.59,9.5,18.4,18.4,0,0,0,7.26,1.43,21.88,21.88,0,0,0,3.75-.34V88.26a11,11,0,0,1-10.17,6.13A10.05,10.05,0,0,1,92,87.21a14.58,14.58,0,0,0,3.54-5.7A14.83,14.83,0,0,0,91.67,66.4a1.58,1.58,0,0,0-2.17,2.29A11.42,11.42,0,1,1,72,83.12a1.57,1.57,0,0,0-2.65,1.69,14.85,14.85,0,0,0,12.38,6.74,14.07,14.07,0,0,0,7.59-2.24,13.15,13.15,0,0,0,10.9,8.21c.3,0,.6,0,.9,0a14.34,14.34,0,0,0,9.54-4v50.15a13.85,13.85,0,0,0-22.25,13.06A1.59,1.59,0,0,0,90,158.07l.24,0a1.57,1.57,0,0,0,1.31-1.8A10.75,10.75,0,0,1,110.69,148V160.4C110.87,163,108.66,168.07,105.93,170Z"/><path class="cls-3" d="M94.77,123.74a12,12,0,0,0,9.58-19.23,1.57,1.57,0,0,0-2.5,1.91,8.81,8.81,0,1,1-15.35,8.12,1.59,1.59,0,0,0-2-1,1.56,1.56,0,0,0-1,2,12.27,12.27,0,0,0,10.24,8.16C94.09,123.72,94.43,123.74,94.77,123.74Z"/><path class="cls-3" d="M182.77,99.06a17.25,17.25,0,0,0,.44-7.53,16.5,16.5,0,0,0-2.46-6.47,16.19,16.19,0,0,0,7.15-10.49,23.58,23.58,0,0,0-7.44-22.44,25.92,25.92,0,0,0-21.34-6.74,17.89,17.89,0,0,0-4.42-14.91,25.07,25.07,0,0,0-15.37-7.66c-3.81-.53-9.39-.56-14.34,2.29a14.38,14.38,0,0,0-7.47,12.1.28.28,0,0,0,0,.09V88.57h0v58.64a1.61,1.61,0,0,0,0,.69v12.4h0c-.2,4,2.72,9.89,6.08,12.25a24.72,24.72,0,0,0,14.24,4,36,36,0,0,0,9.32-1.27c6.69-1.81,13.26-7.32,18-15.11a22.45,22.45,0,0,0,3.46-14.36,13.28,13.28,0,0,0,2.16.17c5.52,0,10.67-3.22,12.39-4.41a26.18,26.18,0,0,0-.42-42.56Zm-1.38,40c-3.74,2.61-9.21,4.82-13.55,3.39A15.58,15.58,0,0,0,160.9,134a14.35,14.35,0,0,0,3.16-6.73,14.67,14.67,0,0,0-4.46-13,1.57,1.57,0,0,0-2.13,2.32,11.2,11.2,0,0,1-13.86,17.53,1.57,1.57,0,0,0-1.76,2.61,14.62,14.62,0,0,0,8.13,2.44,14.39,14.39,0,0,0,5.55-1.11,13.84,13.84,0,0,0,3-1.74l0,0a12.49,12.49,0,0,1,7,9.79,19.27,19.27,0,0,1-3,12.49c-4.35,7.12-10.24,12.12-16.16,13.72-8,2.16-15.81,1.3-20.92-2.3-2.73-1.92-4.94-7-4.76-9.59V148a10.75,10.75,0,0,1,19.14,8.22,1.57,1.57,0,0,0,1.31,1.8l.24,0a1.59,1.59,0,0,0,1.56-1.33,13.85,13.85,0,0,0-22.25-13.06V93.53a14.34,14.34,0,0,0,9.54,4c.3,0,.6,0,.9,0A13.14,13.14,0,0,0,142,89.31a14.07,14.07,0,0,0,7.6,2.24A14.85,14.85,0,0,0,162,84.81a1.57,1.57,0,1,0-2.65-1.69,11.42,11.42,0,1,1-17.47-14.43,1.57,1.57,0,0,0-2.16-2.29,14.81,14.81,0,0,0-3.85,15.11,14.58,14.58,0,0,0,3.54,5.7,10.05,10.05,0,0,1-8.55,7.18,11,11,0,0,1-10.17-6.13V62.37a21.88,21.88,0,0,0,3.75.34,18.4,18.4,0,0,0,7.26-1.43,14.87,14.87,0,0,0,8.59-9.5,12.05,12.05,0,0,0-3.67-12.36,1.57,1.57,0,1,0-2,2.42A9,9,0,0,1,137.22,51a11.91,11.91,0,0,1-6.79,7.44,16.63,16.63,0,0,1-9.78.77V37.8a.47.47,0,0,0,0-.17c-.17-3.72,2.2-7.66,5.9-9.79,4.18-2.41,9-2.37,12.33-1.91a21.91,21.91,0,0,1,13.46,6.65,14.53,14.53,0,0,1,3.52,13A10.05,10.05,0,0,0,145,45.39a1.57,1.57,0,1,0,1.7,2.64,6.65,6.65,0,0,1,9.33,9,1.58,1.58,0,0,0,.56,2.16,1.62,1.62,0,0,0,.8.21,1.56,1.56,0,0,0,1.35-.77,10,10,0,0,0,0-9.93,22.64,22.64,0,0,1,19.58,5.79c5.68,5.23,8.06,12.32,6.51,19.45a12.87,12.87,0,0,1-6.16,8.7c-.25-.23-.5-.46-.77-.67a10.91,10.91,0,0,0-11.1-1.54,1.57,1.57,0,0,0,1.34,2.84A7.72,7.72,0,0,1,176,84.41,12,12,0,0,1,180.1,92a13.36,13.36,0,0,1-1,7.89,9.82,9.82,0,0,1-5.63,5.07,7.68,7.68,0,0,1-7.07-1.22,1.57,1.57,0,0,0-2,2.42,10.44,10.44,0,0,0,6.65,2.33,11.36,11.36,0,0,0,3.39-.53,12.8,12.8,0,0,0,7.11-6,23,23,0,0,1-.12,37Z"/><path class="cls-3" d="M146.83,113.54a1.57,1.57,0,0,0-2,1,8.81,8.81,0,1,1-15.36-8.12,1.57,1.57,0,0,0-2.5-1.91,12,12,0,0,0,9.58,19.23c.34,0,.68,0,1,0a12.27,12.27,0,0,0,10.24-8.16A1.56,1.56,0,0,0,146.83,113.54Z"/><rect class="cls-5" x="232.96" width="520.5" height="223.54"/><text class="cls-6" transform="translate(250.37 141.54) scale(0.83 1)">S</text><text class="cls-7" transform="translate(295.32 141.54) scale(0.58 0.7)">A<tspan class="cls-8" x="76.37" y="0">L</tspan><tspan class="cls-9" x="125.73" y="0">UBRE</tspan></text><text class="cls-6" transform="translate(516.12 141.54) scale(0.83 1)">M</text><text class="cls-10" transform="translate(588.98 141.54) scale(0.58 0.7)">ENTE</text></g></g></svg>